<svg id="visual" viewBox="0 0 1200 230" width="1200" height="230" xmlns="http://www.w3.org/2000/svg" xmlns:xlink="http://www.w3.org/1999/xlink" version="1.1"><rect x="0" y="0" width="1200" height="230" fill="#001220"></rect><path d="M0 183L33.3 183.2C66.7 183.3 133.3 183.7 200 180C266.7 176.3 333.3 168.7 400 168C466.7 167.3 533.3 173.7 600 173C666.7 172.3 733.3 164.7 800 165.2C866.7 165.7 933.3 174.3 1000 177C1066.7 179.7 1133.3 176.3 1166.7 174.7L1200 173L1200 0L1166.7 0C1133.3 0 1066.7 0 1000 0C933.3 0 866.7 0 800 0C733.3 0 666.7 0 600 0C533.3 0 466.7 0 400 0C333.3 0 266.7 0 200 0C133.3 0 66.7 0 33.3 0L0 0Z" fill="#fa7268"></path><path d="M0 130L33.3 133.8C66.7 137.7 133.3 145.3 200 145C266.7 144.7 333.3 136.3 400 133.3C466.7 130.3 533.3 132.7 600 135.3C666.7 138 733.3 141 800 143.2C866.7 145.3 933.3 146.7 1000 146.7C1066.7 146.7 1133.3 145.3 1166.7 144.7L1200 144L1200 0L1166.7 0C1133.3 0 1066.7 0 1000 0C933.3 0 866.7 0 800 0C733.3 0 666.7 0 600 0C533.3 0 466.7 0 400 0C333.3 0 266.7 0 200 0C133.3 0 66.7 0 33.3 0L0 0Z" fill="#f36567"></path><path d="M0 109L33.3 110.2C66.7 111.3 133.3 113.7 200 116.8C266.7 120 333.3 124 400 125.7C466.7 127.3 533.3 126.7 600 123.7C666.7 120.7 733.3 115.3 800 116.3C866.7 117.3 933.3 124.7 1000 125.7C1066.7 126.7 1133.3 121.3 1166.7 118.7L1200 116L1200 0L1166.7 0C1133.3 0 1066.7 0 1000 0C933.3 0 866.7 0 800 0C733.3 0 666.7 0 600 0C533.3 0 466.7 0 400 0C333.3 0 266.7 0 200 0C133.3 0 66.7 0 33.3 0L0 0Z" fill="#eb5967"></path><path d="M0 102L33.3 100.7C66.7 99.3 133.3 96.7 200 97C266.7 97.3 333.3 100.7 400 101.3C466.7 102 533.3 100 600 97C666.7 94 733.3 90 800 91.8C866.7 93.7 933.3 101.3 1000 102.7C1066.7 104 1133.3 99 1166.7 96.5L1200 94L1200 0L1166.7 0C1133.3 0 1066.7 0 1000 0C933.3 0 866.7 0 800 0C733.3 0 666.7 0 600 0C533.3 0 466.7 0 400 0C333.3 0 266.7 0 200 0C133.3 0 66.7 0 33.3 0L0 0Z" fill="#e34c67"></path><path d="M0 64L33.3 65.7C66.7 67.3 133.3 70.7 200 71.7C266.7 72.7 333.3 71.3 400 72.7C466.7 74 533.3 78 600 78.8C666.7 79.7 733.3 77.3 800 76.5C866.7 75.7 933.3 76.3 1000 77.3C1066.7 78.3 1133.3 79.7 1166.7 80.3L1200 81L1200 0L1166.7 0C1133.3 0 1066.7 0 1000 0C933.3 0 866.7 0 800 0C733.3 0 666.7 0 600 0C533.3 0 466.7 0 400 0C333.3 0 266.7 0 200 0C133.3 0 66.7 0 33.3 0L0 0Z" fill="#da3f67"></path><path d="M0 60L33.3 59.3C66.7 58.7 133.3 57.3 200 56.3C266.7 55.3 333.3 54.7 400 52.3C466.7 50 533.3 46 600 46C666.7 46 733.3 50 800 51.5C866.7 53 933.3 52 1000 50.3C1066.7 48.7 1133.3 46.3 1166.7 45.2L1200 44L1200 0L1166.7 0C1133.3 0 1066.7 0 1000 0C933.3 0 866.7 0 800 0C733.3 0 666.7 0 600 0C533.3 0 466.7 0 400 0C333.3 0 266.7 0 200 0C133.3 0 66.7 0 33.3 0L0 0Z" fill="#d03267"></path><path d="M0 21L33.3 21.8C66.7 22.7 133.3 24.3 200 25C266.7 25.7 333.3 25.3 400 26.2C466.7 27 533.3 29 600 29.7C666.7 30.3 733.3 29.7 800 30.5C866.7 31.3 933.3 33.7 1000 33.3C1066.7 33 1133.3 30 1166.7 28.5L1200 27L1200 0L1166.7 0C1133.3 0 1066.7 0 1000 0C933.3 0 866.7 0 800 0C733.3 0 666.7 0 600 0C533.3 0 466.7 0 400 0C333.3 0 266.7 0 200 0C133.3 0 66.7 0 33.3 0L0 0Z" fill="#c62368"></path></svg>