<svg id="visual" viewBox="0 0 960 540" width="960" height="540" xmlns="http://www.w3.org/2000/svg" xmlns:xlink="http://www.w3.org/1999/xlink" version="1.1"><path d="M0 66L40 61.5C80 57 160 48 240 41.7C320 35.3 400 31.7 480 29.8C560 28 640 28 720 38.8C800 49.7 880 71.3 920 82.2L960 93L960 0L920 0C880 0 800 0 720 0C640 0 560 0 480 0C400 0 320 0 240 0C160 0 80 0 40 0L0 0Z" fill="#001220"></path><path d="M0 212L40 203C80 194 160 176 240 171.5C320 167 400 176 480 187.7C560 199.3 640 213.7 720 234.3C800 255 880 282 920 295.5L960 309L960 91L920 80.2C880 69.3 800 47.7 720 36.8C640 26 560 26 480 27.8C400 29.7 320 33.3 240 39.7C160 46 80 55 40 59.5L0 64Z" fill="#6c7487"></path><path d="M0 298L40 282.7C80 267.3 160 236.7 240 233C320 229.3 400 252.7 480 271.7C560 290.7 640 305.3 720 324.3C800 343.3 880 366.7 920 378.3L960 390L960 307L920 293.5C880 280 800 253 720 232.3C640 211.7 560 197.3 480 185.7C400 174 320 165 240 169.5C160 174 80 192 40 201L0 210Z" fill="#e8e8ff"></path><path d="M0 428L40 429.7C80 431.3 160 434.7 240 428.3C320 422 400 406 480 402.5C560 399 640 408 720 416C800 424 880 431 920 434.5L960 438L960 388L920 376.3C880 364.7 800 341.3 720 322.3C640 303.3 560 288.7 480 269.7C400 250.7 320 227.3 240 231C160 234.7 80 265.3 40 280.7L0 296Z" fill="#e8e8ff"></path><path d="M0 471L40 479C80 487 160 503 240 505.7C320 508.3 400 497.7 480 493.2C560 488.7 640 490.3 720 492.2C800 494 880 496 920 497L960 498L960 436L920 432.5C880 429 800 422 720 414C640 406 560 397 480 400.5C400 404 320 420 240 426.3C160 432.7 80 429.3 40 427.7L0 426Z" fill="#6c7487"></path><path d="M0 541L40 541C80 541 160 541 240 541C320 541 400 541 480 541C560 541 640 541 720 541C800 541 880 541 920 541L960 541L960 496L920 495C880 494 800 492 720 490.2C640 488.3 560 486.7 480 491.2C400 495.7 320 506.3 240 503.7C160 501 80 485 40 477L0 469Z" fill="#001220"></path></svg>