<?xml version="1.0" encoding="UTF-8"?>
<svg xmlns="http://www.w3.org/2000/svg" xmlns:xlink="http://www.w3.org/1999/xlink" width="608px" height="310px" viewBox="0 0 607 310" version="1.1">
<g id="surface1">
<path style=" stroke:none;fill-rule:nonzero;fill:rgb(0%,0%,0%);fill-opacity:1;" d="M 111.871094 2.054688 C 110.789062 3.425781 110.675781 4.335938 110.675781 10.613281 C 110.675781 14.4375 110.847656 18.035156 111.015625 18.546875 C 111.585938 19.972656 114.554688 21.230469 116.4375 20.832031 C 119.347656 20.203125 119.800781 18.832031 119.800781 10.558594 C 119.800781 3.425781 119.746094 2.96875 118.492188 1.828125 C 116.550781 0 113.414062 0.113281 111.871094 2.054688 Z M 111.871094 2.054688 "/>
<path style=" stroke:none;fill-rule:nonzero;fill:rgb(0%,0%,0%);fill-opacity:1;" d="M 79.925781 10.613281 C 79.242188 11.472656 78.726562 12.785156 78.726562 13.527344 C 78.726562 15.125 84.546875 25.511719 86.257812 26.9375 C 88.882812 29.21875 93.558594 27.050781 93.558594 23.570312 C 93.558594 21.972656 88.597656 12.667969 86.542969 10.386719 C 84.832031 8.558594 81.464844 8.617188 79.925781 10.613281 Z M 79.925781 10.613281 "/>
<path style=" stroke:none;fill-rule:nonzero;fill:rgb(0%,0%,0%);fill-opacity:1;" d="M 143.933594 10.386719 C 141.824219 12.785156 136.917969 21.972656 136.917969 23.570312 C 136.917969 27.277344 141.878906 29.332031 144.503906 26.652344 C 146.5 24.710938 151.75 15.179688 151.75 13.582031 C 151.75 12.785156 151.238281 11.472656 150.550781 10.613281 C 149.011719 8.617188 145.644531 8.503906 143.933594 10.386719 Z M 143.933594 10.386719 "/>
<path style=" stroke:none;fill-rule:nonzero;fill:rgb(0%,0%,0%);fill-opacity:1;" d="M 109.535156 29.105469 C 93.046875 31.730469 79.984375 43.828125 76.160156 60.035156 C 75.703125 62.035156 75.304688 63.972656 75.304688 64.316406 C 75.304688 64.886719 79.640625 65.058594 95.15625 65.058594 L 115.066406 65.058594 L 116.265625 66.371094 C 117.121094 67.285156 119.574219 74.074219 123.566406 86.800781 C 126.875 97.304688 129.671875 105.976562 129.785156 106.035156 C 129.898438 106.148438 131.726562 105.351562 133.894531 104.207031 C 143.363281 99.242188 150.09375 91.195312 153.574219 80.753906 C 154.660156 77.386719 154.886719 75.617188 154.886719 69.054688 C 154.886719 62.089844 154.714844 60.835938 153.234375 56.269531 C 149.183594 43.828125 138.6875 33.785156 126.191406 30.304688 C 121.230469 28.933594 113.871094 28.421875 109.535156 29.105469 Z M 109.535156 29.105469 "/>
<path style=" stroke:none;fill-rule:nonzero;fill:rgb(0%,0%,0%);fill-opacity:1;" d="M 56.535156 34.011719 C 53.855469 37.4375 55.222656 39.605469 62.695312 43.886719 C 69.199219 47.597656 70.285156 47.882812 72.339844 46.453125 C 74.164062 45.199219 74.792969 43.203125 74.050781 41.089844 C 73.59375 39.71875 72.222656 38.636719 67.660156 35.953125 C 60.929688 31.957031 58.476562 31.558594 56.535156 34.011719 Z M 56.535156 34.011719 "/>
<path style=" stroke:none;fill-rule:nonzero;fill:rgb(0%,0%,0%);fill-opacity:1;" d="M 163.160156 35.726562 C 160.191406 37.496094 157.398438 39.320312 157.054688 39.835938 C 156.65625 40.347656 156.3125 41.71875 156.3125 42.859375 C 156.3125 45.257812 158.3125 47.367188 160.535156 47.367188 C 161.960938 47.367188 173.371094 40.917969 174.457031 39.550781 C 175.480469 38.121094 175.3125 35.726562 173.941406 34.011719 C 172.058594 31.617188 169.550781 31.957031 163.160156 35.726562 Z M 163.160156 35.726562 "/>
<path style=" stroke:none;fill-rule:nonzero;fill:rgb(0%,0%,0%);fill-opacity:1;" d="M 166.582031 64.316406 C 162.53125 65.859375 161.90625 70.9375 165.5 72.761719 C 167.496094 73.847656 179.132812 73.960938 181.015625 72.933594 C 183.984375 71.394531 184.554688 68.367188 182.328125 65.800781 C 180.960938 64.261719 180.84375 64.203125 174.171875 64.089844 C 170.460938 64.03125 167.039062 64.089844 166.582031 64.316406 Z M 166.582031 64.316406 "/>
<path style=" stroke:none;fill-rule:nonzero;fill:rgb(0%,0%,0%);fill-opacity:1;" d="M 0.570312 76.300781 C 0.570312 76.871094 1.371094 86.574219 2.28125 97.875 C 3.25 109.171875 3.992188 118.476562 3.992188 118.53125 C 3.992188 118.648438 16.714844 118.703125 32.234375 118.703125 C 59.617188 118.703125 60.472656 118.648438 60.472656 117.621094 C 60.472656 116.992188 58.53125 107.347656 56.191406 96.160156 C 53.855469 84.917969 51.914062 75.671875 51.914062 75.558594 C 51.914062 75.445312 40.390625 75.332031 26.242188 75.332031 C 2.167969 75.332031 0.570312 75.386719 0.570312 76.300781 Z M 0.570312 76.300781 "/>
<path style=" stroke:none;fill-rule:nonzero;fill:rgb(0%,0%,0%);fill-opacity:1;" d="M 61.042969 75.730469 C 60.984375 76.015625 62.980469 85.773438 65.378906 97.417969 L 69.828125 118.703125 L 96.242188 118.703125 C 110.789062 118.703125 122.65625 118.648438 122.65625 118.53125 C 122.65625 118.476562 119.574219 108.773438 115.867188 97.019531 L 109.078125 75.617188 L 85.058594 75.445312 C 71.824219 75.386719 61.042969 75.503906 61.042969 75.730469 Z M 61.042969 75.730469 "/>
<path style=" stroke:none;fill-rule:nonzero;fill:rgb(0%,0%,0%);fill-opacity:1;" d="M 158.765625 91.027344 C 156.257812 92.109375 155.285156 95.933594 157.054688 98.042969 C 157.96875 99.1875 169.605469 105.578125 170.746094 105.578125 C 172.230469 105.578125 175.140625 102.496094 175.140625 100.898438 C 175.140625 98.671875 173.65625 97.246094 168.121094 93.992188 C 161.734375 90.226562 161.105469 90 158.765625 91.027344 Z M 158.765625 91.027344 "/>
<path style=" stroke:none;fill-rule:nonzero;fill:rgb(0%,0%,0%);fill-opacity:1;" d="M 138.34375 111 C 136.175781 113.109375 136.574219 114.9375 140.339844 121.671875 C 143.078125 126.464844 144.164062 127.890625 145.53125 128.347656 C 148.441406 129.375 151.75 127.207031 151.75 124.238281 C 151.75 122.300781 145.304688 111 143.761719 110.144531 C 141.9375 109.171875 139.769531 109.515625 138.34375 111 Z M 138.34375 111 "/>
<path style=" stroke:none;fill-rule:nonzero;fill:rgb(0%,0%,0%);fill-opacity:1;" d="M 4.792969 129.375 C 4.964844 130.917969 5.761719 141.246094 6.5625 152.375 C 7.417969 163.503906 8.15625 173.207031 8.328125 173.890625 L 8.558594 175.203125 L 40.503906 175.203125 C 60.015625 175.203125 72.453125 174.972656 72.453125 174.6875 C 72.453125 174.347656 70.285156 163.675781 67.601562 150.890625 C 64.921875 138.109375 62.753906 127.4375 62.753906 127.207031 C 62.753906 126.921875 49.632812 126.695312 33.601562 126.695312 L 4.449219 126.695312 Z M 4.792969 129.375 "/>
<path style=" stroke:none;fill-rule:nonzero;fill:rgb(0%,0%,0%);fill-opacity:1;" d="M 71.882812 128.804688 C 72.167969 130.003906 74.335938 140.332031 76.671875 151.746094 C 79.070312 163.105469 81.179688 173.089844 81.351562 173.832031 L 81.695312 175.203125 L 111.015625 175.203125 C 127.160156 175.203125 140.339844 175.03125 140.339844 174.746094 C 140.398438 174.519531 136.972656 163.617188 132.867188 150.492188 L 125.28125 126.695312 L 71.425781 126.695312 Z M 71.882812 128.804688 "/>
<path style=" stroke:none;fill-rule:nonzero;fill:rgb(0%,0%,0%);fill-opacity:1;" d="M 193.738281 152.03125 C 185.464844 155.113281 181.816406 167.613281 185.238281 181.195312 C 186.492188 186.273438 189.6875 192.78125 197.445312 205.847656 C 206.746094 221.542969 207.886719 224.679688 205.320312 227.933594 C 202.179688 231.871094 197.84375 227.992188 193.910156 217.605469 C 192.9375 215.152344 191.796875 212.8125 191.285156 212.410156 C 190.144531 211.613281 185.636719 211.5 185.125 212.242188 C 184.953125 212.582031 185.464844 217.089844 186.265625 222.398438 C 188.433594 237.179688 187.976562 235.695312 190.542969 235.695312 C 192.253906 235.695312 192.9375 235.351562 193.851562 234.15625 L 194.992188 232.613281 L 198.1875 234.210938 C 200.925781 235.640625 201.894531 235.808594 205.089844 235.582031 C 209.371094 235.296875 212.394531 233.585938 215.472656 229.53125 C 218.15625 226.050781 219.066406 222.285156 219.066406 215.207031 C 219.066406 204.707031 217.640625 200.828125 206.746094 181.480469 C 203.265625 175.375 199.898438 169.039062 199.273438 167.5 C 196.703125 161.449219 197.046875 158.082031 200.183594 158.082031 C 202.464844 158.082031 204.75 160.878906 207.714844 167.097656 C 210.851562 173.660156 211.195312 174.0625 214.5625 174.0625 C 216.042969 174.0625 217.414062 173.832031 217.585938 173.546875 C 217.871094 173.089844 214.789062 152.488281 214.332031 152.03125 C 214.21875 151.917969 213.304688 151.632812 212.335938 151.460938 C 210.796875 151.175781 210.28125 151.347656 208.800781 152.945312 L 207.085938 154.773438 L 204.007812 153.289062 C 200.011719 151.40625 196.589844 151.003906 193.738281 152.03125 Z M 193.738281 152.03125 "/>
<path style=" stroke:none;fill-rule:nonzero;fill:rgb(0%,0%,0%);fill-opacity:1;" d="M 244.910156 151.804688 C 236.46875 153.515625 229.222656 162.246094 225.914062 174.917969 C 223.117188 185.644531 223.117188 201.570312 225.914062 212.582031 C 228.59375 223.367188 234.757812 231.929688 241.601562 234.496094 C 246.449219 236.324219 253.410156 236.039062 258.03125 233.753906 C 264.421875 230.671875 269.671875 222.628906 272.523438 211.785156 C 273.664062 207.390625 274.003906 204.421875 274.234375 197.003906 C 274.632812 185.929688 273.890625 179.3125 271.496094 172.0625 C 267.730469 160.765625 261.96875 154.144531 254.039062 152.089844 C 250.5 151.175781 248.5625 151.121094 244.910156 151.804688 Z M 251.585938 158.082031 C 252.214844 158.710938 252.839844 159.792969 253.011719 160.480469 C 253.183594 161.21875 253.238281 176.628906 253.183594 194.71875 L 253.011719 227.707031 L 251.472656 229.191406 C 249.644531 231.074219 247.535156 230.730469 246.050781 228.449219 C 245.082031 227.019531 245.023438 224.339844 244.855469 195.175781 C 244.738281 177.769531 244.855469 162.648438 245.023438 161.5625 C 245.425781 159.335938 247.648438 156.941406 249.304688 156.941406 C 249.929688 156.941406 250.957031 157.453125 251.585938 158.082031 Z M 251.585938 158.082031 "/>
<path style=" stroke:none;fill-rule:nonzero;fill:rgb(0%,0%,0%);fill-opacity:1;" d="M 279.367188 153.289062 C 279.140625 153.515625 278.96875 154.773438 278.96875 156.085938 C 278.96875 158.195312 279.253906 158.710938 280.964844 160.023438 L 282.960938 161.5625 L 282.960938 193.75 C 282.960938 211.441406 282.792969 226.335938 282.621094 226.851562 C 282.390625 227.308594 281.535156 228.105469 280.625 228.621094 C 279.195312 229.359375 278.96875 229.761719 278.96875 231.929688 C 278.96875 233.699219 279.253906 234.554688 279.882812 234.78125 C 281.308594 235.296875 315.082031 235.183594 315.992188 234.613281 C 316.90625 234.039062 319.359375 218.234375 318.730469 216.691406 C 318.445312 216.007812 317.707031 215.722656 315.9375 215.722656 C 314.566406 215.722656 313.199219 215.949219 312.800781 216.179688 C 312.457031 216.40625 311.316406 219.089844 310.347656 222.171875 C 308.40625 228.332031 307.207031 229.648438 303.957031 229.304688 L 302.074219 229.132812 L 301.902344 196.601562 C 301.84375 178.683594 301.902344 163.503906 302.074219 162.761719 C 302.246094 162.019531 303.273438 160.933594 304.414062 160.25 C 306.351562 159.109375 306.410156 158.9375 306.238281 156.140625 L 306.066406 153.230469 L 292.890625 153.058594 C 285.644531 153.003906 279.597656 153.117188 279.367188 153.289062 Z M 279.367188 153.289062 "/>
<path style=" stroke:none;fill-rule:nonzero;fill:rgb(0%,0%,0%);fill-opacity:1;" d="M 330.65625 154.714844 C 330.199219 157.167969 330.769531 158.996094 332.367188 160.078125 C 333.164062 160.59375 333.734375 161.507812 333.734375 162.246094 C 333.734375 162.988281 331.566406 177.371094 328.886719 194.261719 C 326.207031 211.097656 324.039062 225.136719 324.039062 225.367188 C 324.039062 225.652344 323.238281 226.851562 322.324219 228.046875 C 320.898438 229.816406 320.613281 230.671875 320.730469 232.5 L 320.898438 234.839844 L 335.734375 234.839844 L 335.902344 232.328125 C 336.074219 229.988281 335.902344 229.589844 333.964844 227.992188 L 331.910156 226.222656 L 332.367188 222 L 332.878906 217.71875 L 339.210938 217.546875 C 346.515625 217.375 346.058594 217.035156 346.628906 222.914062 C 347.027344 226.566406 346.972656 226.679688 345.203125 228.503906 C 343.664062 230.101562 343.378906 230.789062 343.546875 232.613281 L 343.71875 234.839844 L 368.25 234.839844 L 368.421875 232.042969 C 368.535156 229.933594 368.363281 229.019531 367.507812 228.046875 C 366.882812 227.421875 366.140625 226.335938 365.796875 225.652344 C 365.453125 224.96875 362.832031 208.816406 359.976562 189.753906 C 357.125 170.695312 354.558594 154.601562 354.214844 154.03125 C 353.703125 153.003906 352.847656 152.945312 342.351562 152.945312 L 331.054688 152.945312 Z M 342.578125 192.265625 C 344.003906 202.480469 345.144531 210.984375 345.144531 211.269531 C 345.144531 211.5 342.578125 211.726562 339.382812 211.726562 L 333.621094 211.726562 L 333.964844 210.128906 C 334.136719 209.273438 335.332031 201.398438 336.589844 192.609375 C 339.097656 174.917969 339.554688 172.347656 339.78125 173.207031 C 339.898438 173.492188 341.152344 182.109375 342.578125 192.265625 Z M 342.578125 192.265625 "/>
<path style=" stroke:none;fill-rule:nonzero;fill:rgb(0%,0%,0%);fill-opacity:1;" d="M 372.359375 153.289062 C 372.128906 153.515625 371.957031 154.886719 371.957031 156.3125 C 372.015625 158.652344 372.1875 159.050781 373.839844 160.078125 L 375.667969 161.21875 L 375.839844 193.40625 L 375.953125 225.539062 L 373.957031 227.363281 C 372.300781 228.90625 371.957031 229.589844 371.957031 231.472656 C 371.957031 232.726562 372.242188 234.039062 372.644531 234.441406 C 373.613281 235.410156 395.976562 235.410156 396.945312 234.441406 C 398.144531 233.242188 397.746094 229.476562 396.203125 227.59375 L 394.777344 225.878906 L 394.777344 198.429688 L 397.6875 198.714844 C 399.628906 198.941406 400.996094 199.398438 401.796875 200.257812 C 402.992188 201.453125 403.050781 202.082031 403.335938 215.609375 C 403.734375 235.238281 403.679688 235.125 416.058594 235.125 C 423.015625 235.125 423.929688 235.011719 424.273438 234.15625 C 425.070312 232.15625 424.671875 229.476562 423.472656 228.164062 C 422.390625 226.964844 422.21875 226.050781 422.046875 217.148438 C 421.820312 207.960938 421.761719 207.277344 420.277344 204.535156 C 418.453125 200.996094 415.429688 198.316406 411.777344 197.003906 C 410.238281 196.488281 409.039062 195.917969 409.039062 195.746094 C 409.039062 195.578125 410.464844 194.835938 412.121094 194.148438 C 420.679688 190.441406 424.5 182.792969 423.1875 172.007812 C 422.332031 164.53125 417.882812 158.253906 411.039062 154.886719 L 407.613281 153.230469 L 390.214844 153.058594 C 380.628906 153.003906 372.585938 153.058594 372.359375 153.289062 Z M 401.453125 160.023438 L 403.050781 161.390625 L 403.222656 173.890625 C 403.335938 181.878906 403.164062 187.074219 402.765625 188.441406 C 401.851562 191.582031 400.199219 192.894531 397.230469 192.894531 L 394.777344 192.894531 L 394.777344 158.652344 L 397.289062 158.652344 C 399.171875 158.652344 400.253906 158.996094 401.453125 160.023438 Z M 401.453125 160.023438 "/>
<path style=" stroke:none;fill-rule:nonzero;fill:rgb(0%,0%,0%);fill-opacity:1;" d="M 453.9375 153.34375 C 453.710938 153.515625 453.539062 154.773438 453.539062 156.085938 C 453.539062 158.195312 453.765625 158.59375 455.707031 159.851562 L 457.816406 161.21875 L 457.816406 226.851562 L 455.648438 227.992188 C 453.539062 229.074219 453.480469 229.191406 453.652344 231.988281 L 453.824219 234.839844 L 481.207031 234.839844 L 481.378906 232.328125 C 481.550781 229.988281 481.378906 229.648438 479.265625 227.648438 L 476.929688 225.539062 L 476.929688 194.035156 C 476.929688 173.546875 477.15625 162.191406 477.5 161.449219 C 477.839844 160.878906 478.8125 160.023438 479.722656 159.566406 C 481.433594 158.652344 482.234375 156.371094 481.664062 154.144531 C 481.378906 152.945312 481.207031 152.945312 467.859375 152.945312 C 460.382812 152.945312 454.109375 153.117188 453.9375 153.34375 Z M 453.9375 153.34375 "/>
<path style=" stroke:none;fill-rule:nonzero;fill:rgb(0%,0%,0%);fill-opacity:1;" d="M 511.898438 166.070312 C 510.585938 166.757812 508.363281 168.355469 506.9375 169.609375 L 504.3125 171.890625 L 504.3125 165.5 L 484.914062 165.5 L 484.914062 167.839844 C 484.914062 169.496094 485.316406 170.695312 486.339844 171.890625 L 487.824219 173.605469 L 487.652344 200.3125 L 487.484375 227.019531 L 486.171875 228.449219 C 485.144531 229.589844 484.859375 230.386719 485.03125 232.328125 L 485.199219 234.839844 L 495.414062 235.011719 C 502.429688 235.125 505.851562 234.953125 506.367188 234.496094 C 507.679688 233.414062 507.335938 230.046875 505.738281 228.164062 L 504.3125 226.449219 L 504.3125 177.714844 L 505.964844 176.742188 C 507.964844 175.601562 510.757812 175.488281 511.613281 176.515625 C 512.070312 177.027344 512.300781 185.875 512.414062 204.078125 L 512.585938 230.84375 L 513.894531 232.957031 L 515.265625 235.125 L 522.566406 235.125 C 526.617188 235.125 530.269531 234.953125 530.78125 234.78125 C 532.152344 234.269531 531.980469 229.933594 530.554688 228.164062 C 529.527344 226.792969 529.46875 225.539062 529.300781 199.683594 L 529.128906 172.632812 L 527.703125 170.125 C 525.476562 166.1875 523.824219 165.273438 518.6875 165.042969 C 515.09375 164.929688 513.839844 165.101562 511.898438 166.070312 Z M 511.898438 166.070312 "/>
<path style=" stroke:none;fill-rule:nonzero;fill:rgb(0%,0%,0%);fill-opacity:1;" d="M 563.242188 166.015625 C 561.929688 166.640625 559.707031 168.183594 558.28125 169.496094 L 555.714844 171.890625 L 555.542969 168.8125 L 555.371094 165.785156 L 545.902344 165.613281 L 536.375 165.5 L 536.03125 166.984375 C 535.519531 168.867188 536.144531 170.695312 537.457031 171.664062 C 538.484375 172.347656 538.542969 173.777344 538.542969 199.570312 L 538.542969 226.679688 L 537.113281 228.390625 C 535.574219 230.21875 535.175781 233.242188 536.375 234.441406 C 537.230469 235.296875 555.769531 235.410156 557.425781 234.554688 C 559.023438 233.640625 558.851562 230.503906 557.082031 228.390625 L 555.65625 226.679688 L 555.65625 177.542969 L 557.367188 176.628906 C 559.59375 175.488281 561.53125 175.542969 562.671875 176.800781 C 563.527344 177.714844 563.644531 180.851562 563.757812 204.707031 C 563.929688 231.074219 563.929688 231.644531 565.125 233.242188 L 566.324219 234.839844 L 574.082031 235.011719 C 581.554688 235.125 581.839844 235.125 582.527344 233.925781 C 583.382812 232.328125 582.8125 228.90625 581.5 227.992188 C 580.53125 227.308594 580.472656 225.308594 580.1875 199.34375 L 579.902344 171.492188 L 578.53125 169.324219 C 577.847656 168.125 576.25 166.699219 574.996094 166.070312 C 572.085938 164.585938 566.496094 164.53125 563.242188 166.015625 Z M 563.242188 166.015625 "/>
<path style=" stroke:none;fill-rule:nonzero;fill:rgb(0%,0%,0%);fill-opacity:1;" d="M 9.128906 184.164062 C 9.070312 185.476562 12.664062 232.214844 12.894531 233.242188 L 13.121094 234.554688 L 49.117188 234.554688 C 83.121094 234.554688 85.117188 234.496094 84.890625 233.527344 C 84.71875 233.011719 82.320312 221.601562 79.527344 208.132812 L 74.449219 183.761719 L 41.816406 183.761719 C 23.847656 183.761719 9.128906 183.933594 9.128906 184.164062 Z M 9.128906 184.164062 "/>
<path style=" stroke:none;fill-rule:nonzero;fill:rgb(0%,0%,0%);fill-opacity:1;" d="M 83.632812 185.191406 C 83.804688 185.988281 86.199219 197.34375 88.9375 210.472656 L 93.902344 234.269531 L 126.707031 234.441406 L 159.566406 234.554688 L 151.523438 209.160156 L 143.476562 183.761719 L 83.292969 183.761719 Z M 83.632812 185.191406 "/>
<path style=" stroke:none;fill-rule:nonzero;fill:rgb(0%,0%,0%);fill-opacity:1;" d="M 593.765625 216.40625 C 587.261719 222.054688 589.601562 234.667969 597.414062 235.523438 C 605.34375 236.378906 609.796875 223.996094 603.863281 217.546875 C 602.207031 215.722656 601.636719 215.492188 598.671875 215.320312 C 595.820312 215.09375 595.078125 215.265625 593.765625 216.40625 Z M 593.765625 216.40625 "/>
<path style=" stroke:none;fill-rule:nonzero;fill:rgb(0%,0%,0%);fill-opacity:1;" d="M 463.066406 242.601562 C 458.785156 243.628906 455.363281 246.3125 454.167969 249.5625 C 453.765625 250.589844 453.539062 259.894531 453.539062 276.15625 L 453.539062 301.152344 L 454.851562 303.664062 C 455.878906 305.605469 456.90625 306.574219 459.414062 307.832031 C 465.859375 311.140625 474.074219 309.542969 477.785156 304.234375 L 479.496094 301.78125 L 479.667969 289.285156 C 479.839844 280.152344 479.667969 276.5 479.152344 275.871094 C 478.695312 275.300781 477.101562 275.074219 473.21875 275.074219 C 466.203125 275.074219 466.089844 275.128906 466.089844 278.726562 C 466.089844 281.808594 467.230469 284.203125 468.714844 284.203125 C 469.339844 284.203125 469.511719 285.574219 469.511719 291.792969 C 469.511719 296.929688 469.285156 299.613281 468.828125 300.070312 C 467.6875 301.210938 464.492188 300.925781 463.808594 299.671875 C 462.894531 297.957031 463.007812 253.332031 463.976562 252.132812 C 465.0625 250.648438 467.742188 250.589844 469.171875 252.019531 C 469.910156 252.703125 470.082031 254.359375 470.082031 260.519531 C 470.082031 269.421875 470.027344 269.367188 475.730469 269.367188 C 480.007812 269.367188 479.953125 269.539062 479.667969 258.296875 C 479.496094 250.191406 479.4375 250.019531 477.785156 247.625 C 474.875 243.515625 468.429688 241.289062 463.066406 242.601562 Z M 463.066406 242.601562 "/>
<path style=" stroke:none;fill-rule:nonzero;fill:rgb(0%,0%,0%);fill-opacity:1;" d="M 527.132812 242.488281 C 523.824219 243.171875 520.285156 245.453125 518.800781 248.023438 L 517.433594 250.363281 L 517.433594 275.53125 C 517.433594 291.910156 517.660156 301.269531 518.0625 302.296875 C 519.714844 306.691406 524.277344 309.316406 530.269531 309.316406 C 536.257812 309.316406 540.824219 306.691406 542.476562 302.296875 C 542.878906 301.269531 543.105469 291.910156 543.105469 275.585938 C 543.105469 251.5625 543.046875 250.417969 541.964844 248.25 C 540.480469 245.398438 537.398438 243.285156 533.464844 242.542969 C 530.15625 241.917969 530.042969 241.917969 527.132812 242.488281 Z M 532.722656 251.847656 C 533.691406 252.589844 533.75 299.042969 532.722656 300.070312 C 531.808594 300.984375 528.558594 300.925781 527.757812 299.957031 C 527.300781 299.441406 527.1875 292.535156 527.246094 275.585938 L 527.417969 252.019531 L 528.785156 251.332031 C 530.15625 250.648438 531.351562 250.820312 532.722656 251.847656 Z M 532.722656 251.847656 "/>
<path style=" stroke:none;fill-rule:nonzero;fill:rgb(0%,0%,0%);fill-opacity:1;" d="M 13.691406 243.515625 C 13.691406 245.285156 18.253906 304.921875 18.597656 307.433594 L 18.882812 309.886719 L 59.671875 309.886719 C 94.472656 309.886719 100.40625 309.773438 100.40625 309.085938 C 100.40625 308.402344 88.140625 248.707031 87 243.800781 L 86.714844 242.542969 L 50.203125 242.542969 C 15.800781 242.542969 13.691406 242.601562 13.691406 243.515625 Z M 13.691406 243.515625 "/>
<path style=" stroke:none;fill-rule:nonzero;fill:rgb(0%,0%,0%);fill-opacity:1;" d="M 95.84375 243 C 95.84375 243.34375 98.921875 258.351562 102.6875 276.386719 C 106.453125 294.421875 109.535156 309.316406 109.535156 309.542969 C 109.535156 310.058594 183.125 310 183.125 309.429688 C 183.183594 309.199219 178.621094 294.191406 173.027344 276.101562 L 162.875 243.113281 L 132.351562 243.113281 C 115.582031 243.113281 100.464844 242.945312 98.867188 242.773438 C 96.867188 242.488281 95.84375 242.601562 95.84375 243 Z M 95.84375 243 "/>
<path style=" stroke:none;fill-rule:nonzero;fill:rgb(0%,0%,0%);fill-opacity:1;" d="M 485.484375 275.871094 L 485.484375 308.171875 L 489.363281 308.171875 C 495.296875 308.171875 495.183594 308.460938 495.183594 294.589844 L 495.183594 283.0625 L 497.636719 283.0625 C 499.007812 283.0625 500.375 283.347656 500.773438 283.75 C 501.230469 284.203125 501.460938 287.570312 501.460938 295.046875 C 501.460938 308.171875 501.460938 308.171875 507.222656 308.171875 L 511.15625 308.171875 L 511.15625 282.378906 L 509.105469 280.496094 C 507.507812 279.011719 507.277344 278.554688 507.964844 278.328125 C 508.476562 278.097656 509.390625 277.128906 510.015625 276.101562 C 511.042969 274.390625 511.15625 273.191406 511.15625 262.917969 C 511.15625 249.964844 510.757812 248.367188 506.480469 245.570312 C 504.199219 244.027344 503.855469 243.972656 494.785156 243.800781 L 485.484375 243.628906 Z M 500.546875 252.589844 C 501.289062 253.332031 501.460938 255.097656 501.460938 262.859375 C 501.460938 268.28125 501.230469 272.789062 500.890625 273.417969 C 500.433594 274.21875 499.691406 274.503906 497.75 274.503906 L 495.183594 274.503906 L 495.183594 251.675781 L 497.410156 251.675781 C 498.722656 251.675781 500.035156 252.074219 500.546875 252.589844 Z M 500.546875 252.589844 "/>
<path style=" stroke:none;fill-rule:nonzero;fill:rgb(0%,0%,0%);fill-opacity:1;" d="M 549.152344 244.597656 C 548.523438 246.195312 548.808594 298.015625 549.4375 300.753906 C 550.691406 306.289062 555.199219 309.429688 561.988281 309.429688 C 566.722656 309.488281 570.433594 307.832031 573 304.578125 L 574.765625 302.351562 L 575.109375 243.6875 L 571.171875 243.6875 C 564.898438 243.6875 565.355469 241.460938 565.355469 272.164062 C 565.355469 289.285156 565.125 298.929688 564.785156 299.671875 C 564.097656 300.925781 560.90625 301.210938 559.761719 300.070312 C 559.25 299.554688 559.078125 292.707031 559.078125 272.789062 C 559.078125 241.632812 559.476562 243.6875 553.429688 243.6875 C 550.351562 243.6875 549.4375 243.914062 549.152344 244.597656 Z M 549.152344 244.597656 "/>
<path style=" stroke:none;fill-rule:nonzero;fill:rgb(0%,0%,0%);fill-opacity:1;" d="M 581.15625 244.085938 C 580.929688 244.257812 580.757812 258.808594 580.757812 276.328125 L 580.757812 308.171875 L 584.636719 308.171875 C 590.457031 308.171875 590.457031 308.230469 590.457031 296.304688 L 590.457031 286.488281 L 594.050781 286.488281 C 599.070312 286.488281 603.007812 284.488281 605.175781 280.894531 L 606.714844 278.210938 L 606.714844 251.960938 L 605.175781 249.277344 C 603.976562 247.339844 602.835938 246.253906 600.609375 245.167969 C 597.816406 243.800781 597.128906 243.6875 589.601562 243.6875 C 585.148438 243.6875 581.328125 243.855469 581.15625 244.085938 Z M 595.820312 252.589844 C 596.617188 253.332031 596.730469 255.269531 596.730469 265.085938 C 596.730469 278.210938 596.617188 278.496094 592.679688 278.496094 L 590.457031 278.496094 L 590.457031 251.675781 L 592.679688 251.675781 C 593.992188 251.675781 595.304688 252.074219 595.820312 252.589844 Z M 595.820312 252.589844 "/>
</g>
</svg>
