<?xml version="1.0" standalone="no"?>
<!DOCTYPE svg PUBLIC "-//W3C//DTD SVG 20010904//EN"
 "http://www.w3.org/TR/2001/REC-SVG-20010904/DTD/svg10.dtd">
<svg version="1.0" xmlns="http://www.w3.org/2000/svg"
 width="1000.000000pt" height="300.000000pt" viewBox="0 0 1000.000000 300.000000"
 preserveAspectRatio="xMidYMid meet">

<g transform="translate(0.000000,300.000000) scale(0.100000,-0.100000)"
fill="#000000" stroke="none">
<path d="M1284 2837 c-3 -8 -4 -45 -2 -83 3 -65 5 -69 27 -72 15 -3 30 3 38
14 16 22 17 126 1 142 -16 16 -57 15 -64 -1z"/>
<path d="M1001 2766 c-15 -18 -10 -39 29 -100 26 -40 35 -47 58 -44 40 4 40
42 0 103 -35 52 -66 67 -87 41z"/>
<path d="M1544 2724 c-43 -66 -42 -98 1 -102 27 -3 33 3 63 52 35 59 38 76 20
94 -24 24 -48 12 -84 -44z"/>
<path d="M1240 2596 c-78 -17 -128 -46 -183 -105 -48 -51 -78 -108 -90 -168
l-6 -33 178 0 c131 0 181 -3 189 -12 5 -7 34 -87 62 -178 29 -91 54 -167 56
-169 8 -9 94 52 133 94 67 73 86 124 86 230 0 77 -4 98 -26 146 -69 147 -241
231 -399 195z"/>
<path d="M791 2556 c-19 -22 1 -48 58 -80 63 -34 95 -32 99 6 3 23 -4 31 -50
57 -58 34 -89 39 -107 17z"/>
<path d="M1733 2539 c-53 -31 -65 -53 -41 -77 18 -18 48 -13 97 16 55 34 69
55 52 76 -20 23 -50 19 -108 -15z"/>
<path d="M1759 2281 c-20 -16 -22 -23 -13 -38 9 -15 25 -18 90 -18 79 0 79 0
82 27 3 22 -2 30 -23 38 -44 17 -110 12 -136 -9z"/>
<path d="M300 2170 c0 -39 19 -275 26 -317 l5 -33 250 0 249 0 -5 23 c-3 12
-18 87 -35 167 -17 80 -32 155 -35 168 l-5 22 -225 0 -225 0 0 -30z"/>
<path d="M834 2183 c5 -18 76 -351 76 -359 0 -7 459 -4 463 4 2 4 -23 89 -55
190 l-60 182 -214 0 c-200 0 -215 -1 -210 -17z"/>
<path d="M1685 2041 c-9 -29 2 -44 55 -73 56 -32 82 -35 100 -13 18 22 6 41
-47 75 -56 34 -99 39 -108 11z"/>
<path d="M2530 1974 l-31 -26 -69 22 c-221 71 -395 -69 -351 -283 22 -109 60
-167 246 -381 170 -197 195 -244 143 -280 -68 -48 -160 12 -230 149 -11 22
-26 43 -32 47 -15 10 -104 10 -110 0 -5 -8 49 -266 59 -282 11 -17 61 -11 89
11 l27 22 76 -23 c87 -26 143 -23 221 10 92 40 144 118 145 220 1 129 -42 212
-217 420 -108 128 -173 220 -183 258 -4 19 0 30 17 44 45 36 99 7 173 -93 77
-103 72 -99 126 -99 28 0 52 3 54 8 4 6 -51 264 -56 268 -1 1 -16 4 -34 7 -26
5 -39 1 -63 -19z"/>
<path d="M3140 1976 c-154 -45 -275 -178 -315 -347 -19 -81 -19 -255 0 -334
62 -261 295 -411 548 -351 171 40 266 129 333 313 27 72 29 89 28 208 -1 113
-4 139 -27 202 -49 139 -129 232 -245 286 -58 27 -78 31 -171 34 -67 1 -123
-2 -151 -11z m184 -67 l26 -20 0 -422 c-1 -316 -4 -426 -13 -438 -34 -45 -92
-46 -127 -2 -19 25 -20 42 -20 437 0 433 0 430 45 454 31 17 60 14 89 -9z"/>
<path d="M3826 1962 c-3 -4 -3 -17 -1 -28 2 -10 4 -22 4 -25 1 -3 17 -13 36
-22 l35 -17 0 -409 c0 -443 3 -418 -54 -446 -13 -7 -21 -20 -21 -35 l0 -25
344 0 344 0 24 99 c13 54 22 105 19 113 -4 10 -20 13 -58 11 l-53 -3 -36 -69
c-21 -39 -45 -76 -55 -83 -10 -7 -40 -13 -66 -13 l-48 0 2 428 3 427 43 20
c38 18 43 23 40 50 l-3 30 -247 3 c-136 1 -249 -1 -252 -6z"/>
<path d="M4780 1937 c0 -26 6 -36 25 -45 21 -10 25 -18 25 -54 0 -24 -7 -70
-16 -103 -8 -33 -46 -196 -83 -362 -38 -166 -73 -308 -77 -315 -5 -7 -21 -23
-36 -36 -16 -14 -28 -34 -28 -48 l0 -24 140 0 140 0 0 30 c0 24 -6 33 -27 41
-44 16 -52 32 -40 87 6 26 16 50 21 54 6 4 59 8 117 8 122 0 127 -2 136 -78 5
-47 4 -51 -23 -68 -36 -23 -43 -32 -39 -53 2 -14 29 -16 228 -19 l227 -2 0 34
c0 25 -6 38 -20 46 -32 17 -41 45 -86 250 -23 107 -54 247 -68 310 -15 63 -38
169 -52 234 -13 65 -29 125 -35 133 -9 10 -57 13 -220 13 l-209 0 0 -33z m205
-383 c19 -93 41 -200 50 -237 8 -38 13 -73 9 -78 -6 -11 -201 -12 -208 -1 -3
4 9 71 26 148 16 76 34 159 38 184 20 111 37 167 46 157 2 -2 20 -80 39 -173z"/>
<path d="M5547 1963 c-4 -3 -7 -18 -7 -33 0 -20 8 -30 33 -41 l32 -14 0 -414
0 -414 -30 -17 c-23 -13 -30 -24 -30 -46 l0 -29 230 0 230 0 3 27 c2 19 -4 34
-22 49 l-26 23 0 173 0 173 54 0 c38 0 60 -6 79 -20 25 -20 25 -22 29 -187 5
-247 2 -243 224 -243 l164 0 0 30 c0 20 -8 35 -25 46 -24 16 -25 21 -25 114 0
132 -6 156 -54 205 -33 34 -57 48 -119 67 -71 23 -90 38 -46 38 39 0 129 43
173 81 114 100 89 280 -52 369 -102 65 -140 70 -491 70 -175 0 -321 -3 -324
-7z m548 -83 c25 -23 25 -26 25 -188 l0 -164 -29 -29 c-25 -24 -37 -29 -80
-29 l-51 0 0 221 0 221 55 -4 c40 -3 62 -11 80 -28z"/>
<path d="M7050 1940 c0 -25 6 -33 38 -47 l37 -18 3 -416 2 -417 -40 -16 c-34
-14 -40 -20 -40 -46 l0 -30 255 0 255 0 0 30 c0 24 -6 33 -27 42 -67 28 -63 1
-63 439 l0 398 26 20 c15 12 35 21 45 21 15 0 19 8 19 35 l0 35 -255 0 -255 0
0 -30z"/>
<path d="M1525 1887 c-23 -17 -16 -44 25 -110 33 -51 62 -60 84 -24 9 14 5 28
-18 70 -27 48 -51 77 -66 77 -3 0 -14 -6 -25 -13z"/>
<path d="M7643 1813 c-15 -5 -18 -63 -4 -63 5 0 17 -7 25 -16 14 -13 16 -59
16 -350 l0 -334 -25 -22 c-16 -13 -25 -32 -25 -50 l0 -28 200 0 200 0 0 30 c0
20 -8 35 -25 46 l-25 16 0 313 0 313 31 11 c45 16 95 14 113 -5 14 -13 16 -59
16 -348 0 -322 1 -333 21 -354 19 -22 26 -22 172 -20 l152 3 -3 30 c-2 17 -12
36 -23 44 -18 13 -19 28 -19 345 0 301 -2 334 -18 366 -53 102 -274 110 -403
15 l-34 -26 -3 38 c-2 21 -9 41 -15 45 -13 8 -304 9 -324 1z"/>
<path d="M8583 1814 c-22 -10 -15 -52 12 -70 l25 -16 0 -344 0 -344 -25 -16
c-17 -11 -25 -25 -25 -45 l0 -29 200 0 200 0 0 31 c0 21 -8 37 -25 51 l-25 19
0 304 c0 262 2 304 16 316 23 19 117 24 132 7 8 -10 12 -112 14 -350 3 -315 4
-337 22 -357 19 -20 27 -21 170 -19 145 3 151 4 154 24 2 12 -8 35 -22 51
l-25 30 -3 341 -3 340 -25 27 c-37 40 -80 55 -163 55 -89 0 -160 -20 -216 -60
-44 -32 -48 -31 -53 25 l-3 30 -160 2 c-88 1 -166 -1 -172 -3z"/>
<path d="M339 1746 c-3 -4 25 -413 30 -423 1 -2 127 -3 281 -3 260 0 280 1
280 18 -1 9 -20 105 -43 212 l-42 195 -251 3 c-138 1 -252 0 -255 -2z"/>
<path d="M930 1746 c0 -9 80 -391 86 -408 5 -17 26 -18 265 -18 243 0 260 1
255 18 -3 9 -34 105 -69 212 l-63 195 -237 3 c-130 1 -237 0 -237 -2z"/>
<path d="M374 1208 c3 -24 10 -110 16 -193 6 -82 13 -165 16 -182 l5 -33 314
0 c275 0 315 2 315 15 0 12 -64 322 -85 413 l-5 22 -291 0 -290 0 5 -42z"/>
<path d="M1040 1233 c0 -18 75 -381 86 -415 5 -17 28 -18 294 -18 l288 0 -34
108 c-18 59 -51 159 -72 222 l-37 115 -263 3 c-245 2 -262 1 -262 -15z"/>
<path d="M9640 1172 c-23 -11 -43 -32 -58 -63 -21 -44 -22 -49 -9 -82 20 -47
51 -73 101 -86 80 -20 165 25 187 98 31 105 -109 190 -221 133z"/>
<path d="M7214 840 c-64 -9 -132 -46 -150 -82 -11 -21 -14 -90 -14 -333 0
-354 -1 -352 83 -391 44 -20 67 -24 152 -24 111 0 165 17 210 66 25 26 25 30
25 191 l0 164 -117 -3 -118 -3 -3 -33 c-4 -38 20 -72 50 -72 16 0 18 -9 18
-94 0 -105 -8 -120 -65 -120 -66 0 -65 -5 -65 319 0 324 -1 319 65 319 57 0
65 -15 65 -120 0 -111 5 -117 103 -112 l62 3 3 114 c2 91 0 118 -14 138 -35
55 -176 90 -290 73z"/>
<path d="M8389 840 c-25 -4 -64 -17 -87 -29 -74 -38 -72 -27 -72 -384 0 -366
-2 -356 91 -397 45 -19 66 -21 153 -18 116 4 166 23 204 78 23 34 23 35 20
346 l-3 312 -25 28 c-50 54 -174 83 -281 64z m106 -102 l25 -11 -2 -301 -3
-301 -27 -13 c-23 -11 -33 -11 -55 0 l-28 13 -3 295 c-2 291 -2 295 19 313 25
20 39 21 74 5z"/>
<path d="M7640 425 l0 -405 66 0 c106 0 104 -4 104 170 l0 150 48 0 c76 0 82
-11 82 -168 0 -154 -1 -152 104 -152 l66 0 0 153 c0 165 -2 173 -54 200 l-30
14 25 13 c53 27 59 44 59 193 l0 139 -33 33 c-51 51 -114 65 -289 65 l-148 0
0 -405z m284 289 c13 -12 16 -38 16 -122 0 -135 -9 -152 -81 -152 l-49 0 0
145 0 145 49 0 c32 0 55 -6 65 -16z"/>
<path d="M8820 466 c0 -412 -4 -393 85 -435 67 -31 231 -30 295 3 25 12 55 38
68 56 22 33 22 34 20 384 l-3 351 -67 3 c-116 5 -107 34 -110 -361 l-3 -342
-27 -12 c-28 -14 -75 -3 -90 20 -4 7 -8 161 -8 343 0 243 -3 333 -12 342 -7 7
-40 12 -80 12 l-68 0 0 -364z"/>
<path d="M9400 426 l0 -406 66 0 c104 0 104 -1 104 145 l0 125 54 0 c77 0 175
33 211 70 l30 31 3 157 c3 189 -4 212 -83 252 -46 23 -61 25 -217 29 l-168 3
0 -406z m284 288 c13 -12 16 -41 16 -154 0 -132 -1 -140 -22 -154 -12 -9 -42
-16 -65 -16 l-43 0 0 170 0 170 49 0 c32 0 55 -6 65 -16z"/>
<path d="M415 693 c3 -21 12 -135 20 -253 8 -118 18 -234 21 -257 l5 -43 360
0 c292 0 359 2 359 13 0 14 -107 527 -116 560 -5 16 -29 17 -330 17 l-324 0 5
-37z"/>
<path d="M1154 688 c3 -24 30 -155 60 -293 l53 -250 328 -3 c260 -2 326 0 323
10 -3 7 -42 132 -88 278 -45 146 -86 273 -92 283 -8 16 -33 17 -300 17 l-291
0 7 -42z"/>
</g>
</svg>
