<?xml version="1.0" standalone="no"?>
<!DOCTYPE svg PUBLIC "-//W3C//DTD SVG 20010904//EN"
 "http://www.w3.org/TR/2001/REC-SVG-20010904/DTD/svg10.dtd">
<svg version="1.0" xmlns="http://www.w3.org/2000/svg"
 width="1079.000000pt" height="231.000000pt" viewBox="0 0 1079.000000 231.000000"
 preserveAspectRatio="xMidYMid meet">

<g transform="translate(0.000000,231.000000) scale(0.100000,-0.100000)"
fill="#000000" stroke="none">
<path d="M453 1914 c-190 -68 -235 -385 -96 -673 25 -52 91 -172 148 -265 165
-277 167 -281 172 -350 5 -58 4 -65 -18 -80 -13 -9 -34 -16 -46 -16 -36 0 -87
54 -120 127 -17 37 -42 93 -56 124 -23 53 -28 57 -65 64 -55 9 -83 -7 -77 -43
2 -15 12 -76 21 -137 37 -251 36 -250 71 -253 21 -2 39 5 61 22 36 31 41 32
92 5 92 -48 186 -31 271 48 82 77 118 208 100 366 -17 146 -69 272 -221 532
-29 50 -64 110 -78 135 -13 25 -28 50 -32 55 -16 23 -60 147 -60 171 0 41 18
64 49 64 40 0 81 -50 142 -173 28 -56 56 -105 62 -109 17 -11 105 -10 112 1 3
5 -1 49 -9 98 -8 48 -22 131 -30 183 -17 99 -29 120 -72 120 -21 0 -74 -44
-74 -62 0 -5 -15 0 -34 11 -38 24 -121 51 -151 50 -11 0 -39 -7 -62 -15z"/>
<path d="M1358 1916 c-172 -50 -292 -220 -344 -491 -24 -123 -24 -396 0 -517
35 -178 92 -303 178 -389 55 -55 91 -76 163 -95 270 -72 490 155 540 559 8 67
15 146 15 177 0 94 -28 302 -51 375 -60 197 -174 340 -299 375 -60 18 -152 20
-202 6z m146 -118 c14 -20 16 -96 16 -629 l0 -606 -25 -27 c-32 -35 -70 -32
-99 7 -21 28 -21 35 -21 626 0 555 1 599 18 624 23 36 88 39 111 5z"/>
<path d="M1992 1843 c3 -49 7 -59 27 -69 13 -7 28 -18 32 -26 13 -21 11 -1142
-2 -1171 -6 -14 -22 -30 -34 -35 -27 -13 -41 -62 -25 -91 10 -21 18 -21 335
-21 299 0 325 1 334 18 13 24 54 300 46 312 -3 5 -31 10 -61 10 -62 0 -58 5
-94 -119 -26 -91 -54 -121 -110 -121 l-40 0 0 598 c0 643 -3 611 53 646 26 16
28 21 25 69 l-3 52 -243 3 -243 2 3 -57z"/>
<path d="M2916 1884 c-15 -39 -6 -81 24 -109 17 -16 30 -38 30 -49 0 -12 -14
-106 -30 -211 -84 -524 -128 -803 -135 -860 -4 -33 -18 -67 -41 -102 -27 -38
-35 -60 -32 -85 l3 -33 138 -3 137 -3 0 50 c0 46 -3 52 -30 66 -37 19 -43 43
-33 125 l8 65 116 3 116 3 13 -83 13 -82 -31 -25 c-33 -28 -48 -67 -37 -100 6
-21 11 -21 228 -19 l222 3 3 53 c2 30 -1 52 -7 52 -22 0 -59 87 -69 160 -6 41
-27 183 -47 315 -20 132 -42 283 -50 335 -59 419 -72 491 -87 526 l-11 24
-203 0 c-175 0 -203 -2 -208 -16z m183 -474 c29 -219 73 -517 78 -537 5 -23 4
-23 -101 -23 -105 0 -106 0 -102 23 8 35 24 145 36 232 5 44 14 109 20 145 10
64 39 274 41 294 2 22 17 -51 28 -134z"/>
<path d="M3660 1875 c-6 -15 -10 -37 -10 -49 0 -24 28 -56 48 -56 29 0 32 -48
32 -609 l0 -570 -36 -29 c-33 -27 -35 -33 -32 -78 l3 -49 225 0 225 0 3 50 c2
43 -1 54 -23 75 l-25 23 0 249 0 248 38 0 c46 0 100 -32 106 -62 3 -13 7 -126
9 -253 5 -336 4 -335 228 -335 l147 0 6 34 c7 37 1 60 -26 95 -15 20 -18 43
-18 161 0 174 -12 234 -59 295 -34 45 -104 92 -162 109 -23 6 -22 8 16 24 139
60 196 128 225 267 14 70 8 141 -21 230 -29 88 -105 172 -197 217 l-67 33
-312 3 -313 3 -10 -26z m509 -89 c15 -8 32 -26 39 -41 15 -33 16 -434 1 -488
-14 -53 -44 -77 -96 -77 l-43 0 0 310 0 310 35 0 c20 0 48 -6 64 -14z"/>
<path d="M5127 1894 c-15 -15 -7 -84 11 -99 9 -7 28 -23 42 -34 l25 -19 3
-564 c1 -309 0 -573 -3 -586 -3 -13 -21 -29 -43 -40 -35 -16 -37 -19 -37 -67
l0 -50 248 -3 247 -2 0 54 c0 51 -2 55 -35 75 l-35 20 0 584 c0 635 -4 593 54
622 17 9 21 19 21 60 l0 50 -246 3 c-135 1 -248 -1 -252 -4z"/>
<path d="M6229 1681 c-46 -9 -116 -50 -154 -91 l-30 -32 -5 59 -5 58 -170 0
-170 0 -3 -44 c-3 -34 1 -48 17 -63 21 -18 21 -27 21 -512 l0 -492 -25 -22
c-17 -15 -25 -32 -25 -54 0 -59 -1 -59 211 -56 l194 3 3 45 c2 38 -1 50 -23
70 l-25 23 0 443 0 442 34 16 c39 18 64 20 86 6 13 -8 16 -78 20 -499 5 -478
5 -490 26 -518 l21 -28 149 0 149 0 3 47 c2 36 -1 50 -17 65 -19 18 -20 34
-23 503 l-3 485 -24 48 c-14 29 -38 58 -60 72 -40 26 -116 37 -172 26z"/>
<path d="M7149 1681 c-46 -9 -116 -50 -154 -91 l-30 -32 -5 59 -5 58 -170 0
-170 0 -3 -44 c-3 -34 1 -48 17 -63 21 -18 21 -27 21 -512 l0 -492 -26 -23
c-21 -18 -25 -29 -22 -64 l3 -42 200 0 200 0 3 45 c2 38 -1 50 -23 70 l-25 23
0 443 0 442 34 16 c39 18 64 20 86 6 13 -8 16 -78 20 -499 5 -478 5 -490 26
-518 l21 -28 149 0 149 0 3 47 c2 36 -1 50 -17 65 -19 18 -20 34 -23 503 l-3
485 -24 48 c-14 29 -38 58 -60 72 -40 26 -116 37 -172 26z"/>
<path d="M8581 810 c-105 -45 -151 -169 -102 -282 21 -50 43 -71 90 -87 48
-16 71 -14 116 9 21 11 41 18 43 15 13 -13 -27 -81 -57 -99 -29 -16 -39 -18
-79 -8 -26 6 -54 13 -63 17 -13 5 -19 -3 -27 -34 l-10 -41 140 0 c135 0 140 1
162 25 38 41 46 90 46 294 l0 191 -46 0 c-37 0 -47 -4 -51 -20 -5 -20 -6 -20
-35 1 -34 24 -93 33 -127 19z m119 -100 c16 -16 20 -33 20 -83 0 -78 -17 -107
-64 -107 -39 0 -63 23 -72 68 -20 100 57 181 116 122z"/>
<path d="M9120 812 c-27 -12 -56 -36 -68 -57 -10 -18 -11 -16 -12 18 l0 37
-50 0 -50 0 0 -190 0 -190 54 0 54 0 4 116 c3 113 4 116 31 140 16 14 41 24
58 24 29 0 29 1 29 55 0 57 -9 65 -50 47z"/>
<path d="M9360 813 c-109 -38 -150 -91 -150 -194 0 -55 5 -72 29 -111 40 -62
79 -82 161 -82 48 0 76 6 108 22 110 58 133 221 43 311 -48 48 -137 73 -191
54z m99 -109 c16 -20 21 -41 21 -86 0 -52 -3 -63 -29 -89 -36 -35 -52 -36 -88
-5 -26 22 -28 30 -28 94 0 55 4 74 19 91 28 31 79 28 105 -5z"/>
<path d="M10315 808 c-16 -6 -40 -19 -52 -30 -21 -20 -21 -20 -25 4 -3 20 -9
23 -57 26 l-54 3 6 -68 c4 -37 7 -152 7 -255 l0 -188 60 0 60 0 0 75 c0 41 2
75 4 75 2 0 17 -7 32 -15 39 -20 80 -19 130 4 94 43 131 175 79 284 -35 74
-119 112 -190 85z m52 -93 c29 -20 47 -83 39 -129 -12 -65 -85 -97 -126 -56
-16 16 -20 33 -20 85 0 57 3 69 25 90 28 29 51 31 82 10z"/>
<path d="M9680 673 c0 -124 2 -144 23 -183 17 -36 31 -48 62 -59 52 -18 104
-9 139 24 33 31 36 31 36 0 0 -23 3 -25 50 -25 l50 0 0 190 0 190 -60 0 -60 0
0 -128 c0 -144 -8 -162 -67 -162 -43 0 -53 27 -55 165 l-3 120 -57 3 -58 3 0
-138z"/>
<path d="M7685 783 c-70 -18 -125 -140 -104 -232 36 -159 204 -181 275 -35 34
69 30 140 -11 202 -34 52 -102 80 -160 65z"/>
</g>
</svg>
